<svg width="464" height="500" viewBox="0 0 464 500" fill="none" xmlns="http://www.w3.org/2000/svg">
<path d="M315.679 39.8101H76.9507C73.1119 39.8101 70 43.1634 70 47.3001V302.28C70 306.417 73.1119 309.77 76.9507 309.77H315.679C319.518 309.77 322.629 306.417 322.629 302.28V47.3001C322.629 43.1634 319.518 39.8101 315.679 39.8101Z" fill="#263238"/>
<path d="M321.766 33.5298H83.0384C79.1997 33.5298 76.0877 36.8832 76.0877 41.0198V296C76.0877 300.136 79.1997 303.49 83.0384 303.49H321.766C325.605 303.49 328.717 300.136 328.717 296V41.0198C328.717 36.8832 325.605 33.5298 321.766 33.5298Z" fill="#92E3C0"/>
<path d="M321.813 304H83.0291C81.0601 304 79.1718 303.157 77.7795 301.657C76.3873 300.157 75.6051 298.122 75.6051 296V41C75.6051 38.8783 76.3873 36.8434 77.7795 35.3431C79.1718 33.8429 81.0601 33 83.0291 33H321.813C323.782 33 325.67 33.8429 327.062 35.3431C328.455 36.8434 329.237 38.8783 329.237 41V296C329.237 298.122 328.455 300.157 327.062 301.657C325.67 303.157 323.782 304 321.813 304ZM83.0291 34C81.3063 34 79.654 34.7375 78.4357 36.0503C77.2175 37.363 76.5331 39.1435 76.5331 41V296C76.5331 297.857 77.2175 299.637 78.4357 300.95C79.654 302.262 81.3063 303 83.0291 303H321.813C323.536 303 325.188 302.262 326.406 300.95C327.624 299.637 328.309 297.857 328.309 296V41C328.309 39.1435 327.624 37.363 326.406 36.0503C325.188 34.7375 323.536 34 321.813 34H83.0291Z" fill="#263238"/>
<path d="M265.483 193.71H139.47C133.166 193.71 128.056 199.217 128.056 206.01V210.64C128.056 217.433 133.166 222.94 139.47 222.94H265.483C271.787 222.94 276.898 217.433 276.898 210.64V206.01C276.898 199.217 271.787 193.71 265.483 193.71Z" fill="white"/>
<path d="M265.492 223.45H139.47C136.32 223.448 133.301 222.098 131.073 219.698C128.846 217.298 127.594 214.044 127.592 210.65V206C127.597 202.607 128.85 199.354 131.076 196.955C133.303 194.556 136.321 193.205 139.47 193.2H265.492C268.64 193.208 271.656 194.56 273.88 196.959C276.105 199.358 277.357 202.609 277.362 206V210.64C277.362 214.034 276.112 217.289 273.886 219.691C271.661 222.093 268.642 223.445 265.492 223.45ZM139.47 194.21C136.569 194.215 133.788 195.459 131.736 197.669C129.683 199.878 128.527 202.874 128.52 206V210.64C128.525 213.768 129.68 216.766 131.732 218.978C133.785 221.19 136.567 222.435 139.47 222.44H265.492C268.394 222.435 271.176 221.19 273.227 218.978C275.278 216.766 276.431 213.767 276.434 210.64V206C276.431 202.873 275.278 199.875 273.227 197.663C271.176 195.451 268.394 194.205 265.492 194.2L139.47 194.21Z" fill="#263238"/>
<path d="M265.483 134.97H139.47C133.166 134.97 128.056 140.477 128.056 147.27V151.9C128.056 158.693 133.166 164.2 139.47 164.2H265.483C271.787 164.2 276.898 158.693 276.898 151.9V147.27C276.898 140.477 271.787 134.97 265.483 134.97Z" fill="white"/>
<path d="M265.492 164.7H139.47C136.32 164.698 133.301 163.348 131.073 160.948C128.846 158.548 127.594 155.294 127.592 151.9V147.26C127.597 143.868 128.85 140.616 131.077 138.219C133.304 135.821 136.322 134.473 139.47 134.47H265.492C268.639 134.476 271.655 135.825 273.88 138.222C276.105 140.62 277.357 143.87 277.362 147.26V151.9C277.359 155.292 276.108 158.545 273.883 160.945C271.658 163.344 268.64 164.695 265.492 164.7ZM139.47 135.47C136.568 135.473 133.786 136.716 131.733 138.926C129.68 141.136 128.525 144.133 128.52 147.26V151.9C128.525 155.028 129.68 158.026 131.732 160.238C133.785 162.45 136.567 163.695 139.47 163.7H265.492C268.394 163.695 271.176 162.45 273.227 160.238C275.278 158.026 276.431 155.027 276.434 151.9V147.26C276.431 144.134 275.278 141.137 273.226 138.926C271.175 136.716 268.393 135.473 265.492 135.47H139.47Z" fill="#263238"/>
<path d="M241.634 240.93H163.329C157.025 240.93 151.915 246.437 151.915 253.23V257.86C151.915 264.653 157.025 270.16 163.329 270.16H241.634C247.938 270.16 253.048 264.653 253.048 257.86V253.23C253.048 246.437 247.938 240.93 241.634 240.93Z" fill="#263238"/>
<path d="M328.708 55.0598V42.0598C328.709 40.9374 328.505 39.8259 328.107 38.7886C327.709 37.7513 327.126 36.8087 326.39 36.0146C325.654 35.2205 324.78 34.5906 323.818 34.1608C322.856 33.731 321.824 33.5098 320.783 33.5098H84.0128C82.9713 33.5098 81.9399 33.731 80.9778 34.1608C80.0157 34.5906 79.1416 35.2205 78.4056 36.0146C77.6695 36.8087 77.086 37.7513 76.6883 38.7886C76.2905 39.8259 76.0864 40.9374 76.0877 42.0598V55.0598H328.708Z" fill="#263238"/>
<path d="M328.717 55.5601H76.0877C75.9646 55.5601 75.8466 55.5074 75.7596 55.4136C75.6725 55.3198 75.6237 55.1927 75.6237 55.0601V42.0601C75.6382 39.678 76.5229 37.3979 78.086 35.7135C79.6492 34.029 81.7651 33.0758 83.9757 33.0601H320.783C323.001 33.0626 325.129 34.0101 326.702 35.6959C328.275 37.3818 329.166 39.6693 329.181 42.0601V55.0601C329.181 55.1927 329.132 55.3198 329.045 55.4136C328.958 55.5074 328.84 55.5601 328.717 55.5601ZM76.5517 54.5601H328.253V42.0801C328.238 39.9546 327.445 37.9213 326.046 36.423C324.647 34.9247 322.755 34.0826 320.783 34.0801H84.0221C82.0576 34.0958 80.1777 34.9437 78.7886 36.4406C77.3995 37.9375 76.6126 39.9632 76.5981 42.0801L76.5517 54.5601Z" fill="#263238"/>
<path d="M292.117 49.5899C294.141 49.5899 295.782 47.8215 295.782 45.6399C295.782 43.4584 294.141 41.6899 292.117 41.6899C290.092 41.6899 288.451 43.4584 288.451 45.6399C288.451 47.8215 290.092 49.5899 292.117 49.5899Z" fill="white"/>
<path d="M292.117 50.0899C291.3 50.0899 290.502 49.829 289.823 49.34C289.143 48.851 288.614 48.156 288.302 47.3429C287.989 46.5298 287.907 45.635 288.067 44.7718C288.226 43.9086 288.619 43.1157 289.197 42.4933C289.774 41.871 290.51 41.4472 291.311 41.2754C292.112 41.1037 292.943 41.1919 293.697 41.5287C294.452 41.8655 295.097 42.4359 295.55 43.1677C296.004 43.8995 296.246 44.7598 296.246 45.6399C296.244 46.8193 295.808 47.9497 295.034 48.7837C294.26 49.6176 293.211 50.0873 292.117 50.0899ZM292.117 42.1899C291.484 42.1899 290.865 42.3923 290.338 42.7714C289.812 43.1505 289.401 43.6893 289.159 44.3197C288.917 44.9501 288.853 45.6438 288.977 46.313C289.1 46.9822 289.405 47.597 289.853 48.0795C290.301 48.562 290.871 48.8905 291.492 49.0237C292.113 49.1568 292.757 49.0885 293.342 48.8273C293.927 48.5662 294.427 48.124 294.779 47.5567C295.131 46.9893 295.318 46.3223 295.318 45.6399C295.316 44.7258 294.978 43.8498 294.378 43.2033C293.778 42.5569 292.965 42.1926 292.117 42.1899Z" fill="#263238"/>
<path d="M304.487 49.5899C306.511 49.5899 308.153 47.8215 308.153 45.6399C308.153 43.4584 306.511 41.6899 304.487 41.6899C302.463 41.6899 300.821 43.4584 300.821 45.6399C300.821 47.8215 302.463 49.5899 304.487 49.5899Z" fill="white"/>
<path d="M304.487 50.0899C303.67 50.0899 302.872 49.829 302.193 49.34C301.514 48.851 300.984 48.156 300.672 47.3429C300.359 46.5298 300.277 45.635 300.437 44.7718C300.596 43.9086 300.989 43.1157 301.567 42.4933C302.144 41.871 302.88 41.4472 303.681 41.2754C304.482 41.1037 305.313 41.1919 306.067 41.5287C306.822 41.8655 307.467 42.4359 307.921 43.1677C308.374 43.8995 308.617 44.7598 308.617 45.6399C308.617 46.8202 308.182 47.952 307.407 48.7866C306.633 49.6211 305.582 50.0899 304.487 50.0899ZM304.487 42.1899C303.854 42.1899 303.235 42.3923 302.708 42.7714C302.182 43.1505 301.771 43.6893 301.529 44.3197C301.287 44.9501 301.223 45.6438 301.347 46.313C301.47 46.9822 301.775 47.597 302.223 48.0795C302.671 48.562 303.241 48.8905 303.862 49.0237C304.483 49.1568 305.127 49.0885 305.712 48.8273C306.297 48.5662 306.797 48.124 307.149 47.5567C307.501 46.9893 307.689 46.3223 307.689 45.6399C307.689 45.1869 307.606 44.7383 307.445 44.3197C307.284 43.9011 307.048 43.5208 306.751 43.2004C306.454 42.8801 306.101 42.6259 305.712 42.4526C305.324 42.2792 304.907 42.1899 304.487 42.1899Z" fill="#263238"/>
<path d="M320.514 45.6401C320.514 44.849 320.296 44.0757 319.888 43.4179C319.48 42.7601 318.9 42.2474 318.222 41.9446C317.544 41.6419 316.797 41.5627 316.077 41.717C315.357 41.8713 314.696 42.2523 314.177 42.8117C313.658 43.3711 313.304 44.0839 313.161 44.8598C313.018 45.6357 313.091 46.44 313.372 47.1709C313.653 47.9018 314.129 48.5265 314.739 48.966C315.35 49.4055 316.067 49.6401 316.802 49.6401C317.786 49.6401 318.73 49.2187 319.426 48.4686C320.123 47.7184 320.514 46.701 320.514 45.6401Z" fill="white"/>
<path d="M316.848 50.0899C316.031 50.0899 315.233 49.829 314.554 49.34C313.875 48.851 313.345 48.156 313.033 47.3429C312.72 46.5298 312.638 45.635 312.798 44.7718C312.957 43.9086 313.35 43.1157 313.928 42.4933C314.505 41.871 315.241 41.4472 316.042 41.2754C316.843 41.1037 317.674 41.1919 318.428 41.5287C319.183 41.8655 319.828 42.4359 320.282 43.1677C320.735 43.8995 320.978 44.7598 320.978 45.6399C320.975 46.8193 320.539 47.9497 319.765 48.7837C318.991 49.6176 317.942 50.0873 316.848 50.0899ZM316.848 42.1899C316.215 42.1899 315.596 42.3923 315.069 42.7714C314.543 43.1505 314.132 43.6893 313.89 44.3197C313.648 44.9501 313.584 45.6438 313.708 46.313C313.831 46.9822 314.136 47.597 314.584 48.0795C315.032 48.562 315.602 48.8905 316.223 49.0237C316.844 49.1568 317.488 49.0885 318.073 48.8273C318.658 48.5662 319.158 48.124 319.51 47.5567C319.862 46.9893 320.05 46.3223 320.05 45.6399C320.047 44.7258 319.709 43.8498 319.109 43.2033C318.509 42.5569 317.696 42.1926 316.848 42.1899Z" fill="#263238"/>
<path d="M142.551 211.3L141.335 210.51L142.867 208.19L140.574 207.25L141.085 205.83L143.266 207.08L143.034 204.21H144.565L144.314 207.08L146.523 205.83L147.005 207.25L144.723 208.25L146.272 210.55L145.01 211.34L143.776 208.73L142.551 211.3Z" fill="#263238"/>
<path d="M150.253 211.3L149.038 210.51L150.569 208.19L148.286 207.25L148.787 205.83L150.968 207.08L150.736 204.21H152.304L152.054 207.08L154.262 205.83L154.745 207.25L152.462 208.25L154.012 210.55L152.75 211.34L151.516 208.73L150.253 211.3Z" fill="#263238"/>
<path d="M157.965 211.3L156.74 210.51L158.271 208.19L155.988 207.25L156.49 205.83L158.68 207.08L158.448 204.21H160.016L159.756 207.08L161.965 205.83L162.447 207.25L160.164 208.25L161.714 210.55L160.461 211.34L159.218 208.73L157.965 211.3Z" fill="#263238"/>
<path d="M165.668 211.3L164.443 210.51L165.974 208.19L163.691 207.25L164.192 205.83L166.382 207.08L166.15 204.21H167.765L167.514 207.08L169.714 205.83L170.205 207.25L167.913 208.25L169.463 210.55L168.21 211.34L166.967 208.73L165.668 211.3Z" fill="#263238"/>
<path d="M173.333 211.3L172.108 210.51L173.639 208.19L171.356 207.25L171.857 205.83L174.047 207.08L173.815 204.21H175.384L175.133 207.08L177.342 205.83L177.824 207.25L175.541 208.25L177.082 210.55L175.829 211.34L174.586 208.73L173.333 211.3Z" fill="#263238"/>
<path d="M181.072 211.3L179.857 210.51L181.379 208.19L179.096 207.25L179.597 205.83L181.787 207.08L181.555 204.21H183.123L182.873 207.08L185.081 205.83L185.564 207.25L183.281 208.25L184.831 210.55L183.569 211.34L182.334 208.73L181.072 211.3Z" fill="#263238"/>
<path d="M188.775 211.3L187.559 210.51L189.081 208.19L186.798 207.25L187.308 205.83L189.489 207.08L189.257 204.21H190.826L190.575 207.08L192.784 205.83L193.266 207.25L190.983 208.25L192.533 210.55L191.271 211.34L190.037 208.69L188.775 211.3Z" fill="#263238"/>
<path d="M196.477 211.3L195.261 210.51L196.793 208.19L194.51 207.25L195.011 205.83L197.192 207.08L196.96 204.21H198.528L198.277 207.08L200.486 205.83L200.969 207.25L198.686 208.25L200.236 210.55L198.973 211.34L197.739 208.73L196.477 211.3Z" fill="#263238"/>
<path d="M204.18 211.3L202.964 210.51L204.495 208.19L202.212 207.25L202.713 205.83L204.903 207.08L204.671 204.21H206.24L205.98 207.08L208.188 205.83L208.671 207.25L206.388 208.25L207.938 210.55L206.685 211.34L205.442 208.73L204.18 211.3Z" fill="#263238"/>
<path d="M211.891 211.3L210.666 210.51L212.197 208.19L209.915 207.25L210.416 205.83L212.606 207.08L212.374 204.21H213.942L213.692 207.08L215.891 205.83L216.373 207.25L214.091 208.25L215.64 210.55L214.388 211.34L213.144 208.73L211.891 211.3Z" fill="#263238"/>
<path d="M219.594 211.3L218.369 210.51L219.9 208.19L217.617 207.25L218.118 205.83L220.308 207.08L220.076 204.21H221.644L221.394 207.08L223.603 205.83L224.085 207.25L221.802 208.25L223.343 210.55L222.09 211.34L220.846 208.73L219.594 211.3Z" fill="#263238"/>
<path d="M227.296 211.3L226.08 210.51L227.602 208.19L225.319 207.25L225.82 205.83L228.011 207.08L227.779 204.21H229.347L229.096 207.08L231.305 205.83L231.787 207.25L229.505 208.25L231.054 210.55L229.792 211.34L228.549 208.73L227.296 211.3Z" fill="#263238"/>
<path d="M234.998 211.3L233.783 210.51L235.305 208.19L233.022 207.25L233.532 205.83L235.713 207.08L235.481 204.21H237.049L236.799 207.08L239.007 205.83L239.49 207.25L237.207 208.25L238.757 210.55L237.495 211.34L236.26 208.73L234.998 211.3Z" fill="#263238"/>
<path d="M242.701 211.3L241.485 210.51L243.016 208.19L240.724 207.25L241.235 205.83L243.415 207.08L243.183 204.21H244.789L244.538 207.08L246.747 205.83L247.229 207.25L244.947 208.25L246.496 210.55L245.234 211.34L244 208.73L242.701 211.3Z" fill="#263238"/>
<path d="M250.403 211.3L249.187 210.51L250.719 208.19L248.436 207.25L248.937 205.83L251.127 207.08L250.886 204.21H252.454L252.203 207.08L254.412 205.83L254.895 207.25L252.612 208.25L254.162 210.55L252.899 211.34L251.665 208.73L250.403 211.3Z" fill="#263238"/>
<path d="M258.115 211.3L256.89 210.51L258.421 208.19L256.138 207.25L256.639 205.83L258.829 207.08L258.597 204.21H260.166L259.906 207.08L262.115 205.83L262.597 207.25L260.314 208.25L261.864 210.55L260.611 211.34L259.368 208.73L258.115 211.3Z" fill="#263238"/>
<path d="M142.551 152.55L141.335 151.76L142.867 149.44L140.574 148.5L141.085 147.08L143.266 148.34L143.034 145.46H144.565L144.314 148.34L146.523 147.08L147.005 148.5L144.723 149.5L146.272 151.8L145.01 152.59L143.776 149.98L142.551 152.55Z" fill="#263238"/>
<path d="M150.253 152.55L149.038 151.76L150.569 149.44L148.277 148.5L148.778 147.08L150.959 148.34L150.727 145.46H152.295L152.044 148.34L154.253 147.08L154.736 148.5L152.453 149.5L154.003 151.8L152.74 152.59L151.506 149.98L150.253 152.55Z" fill="#263238"/>
<path d="M157.965 152.55L156.74 151.76L158.271 149.44L155.988 148.5L156.49 147.08L158.68 148.34L158.448 145.46H160.016L159.756 148.34L161.965 147.08L162.447 148.5L160.164 149.5L161.714 151.8L160.461 152.59L159.218 149.98L157.965 152.55Z" fill="#263238"/>
<path d="M165.668 152.55L164.443 151.76L165.974 149.44L163.691 148.5L164.192 147.08L166.382 148.34L166.15 145.46H167.765L167.514 148.34L169.714 147.08L170.205 148.5L167.913 149.5L169.463 151.8L168.21 152.59L166.967 149.98L165.668 152.55Z" fill="#263238"/>
<path d="M173.333 152.55L172.108 151.76L173.639 149.44L171.356 148.5L171.857 147.08L174.047 148.34L173.815 145.46H175.384L175.133 148.34L177.342 147.08L177.824 148.5L175.541 149.5L177.082 151.8L175.829 152.59L174.586 149.98L173.333 152.55Z" fill="#263238"/>
<path d="M181.072 152.55L179.857 151.76L181.379 149.44L179.096 148.5L179.597 147.08L181.787 148.34L181.555 145.46H183.123L182.873 148.34L185.081 147.08L185.564 148.5L183.281 149.5L184.831 151.8L183.569 152.59L182.334 149.98L181.072 152.55Z" fill="#263238"/>
<path d="M188.775 152.55L187.559 151.76L189.081 149.44L186.798 148.5L187.308 147.08L189.489 148.34L189.257 145.46H190.826L190.575 148.34L192.784 147.08L193.266 148.5L190.983 149.5L192.533 151.8L191.271 152.59L190.037 149.94L188.775 152.55Z" fill="#263238"/>
<path d="M196.477 152.55L195.261 151.76L196.793 149.44L194.51 148.5L195.011 147.08L197.192 148.34L196.96 145.46H198.528L198.277 148.34L200.486 147.08L200.969 148.5L198.686 149.5L200.236 151.8L198.973 152.59L197.739 149.98L196.477 152.55Z" fill="#263238"/>
<path d="M204.18 152.55L202.964 151.76L204.495 149.44L202.212 148.5L202.713 147.08L204.903 148.34L204.671 145.46H206.24L205.98 148.34L208.188 147.08L208.671 148.5L206.388 149.5L207.938 151.8L206.685 152.59L205.442 149.98L204.18 152.55Z" fill="#263238"/>
<path d="M211.891 152.55L210.666 151.76L212.197 149.44L209.915 148.5L210.416 147.08L212.606 148.34L212.374 145.46H213.942L213.692 148.34L215.891 147.08L216.373 148.5L214.091 149.5L215.64 151.8L214.388 152.59L213.144 149.98L211.891 152.55Z" fill="#263238"/>
<path d="M219.594 152.55L218.369 151.76L219.9 149.44L217.617 148.5L218.118 147.08L220.308 148.34L220.076 145.46H221.644L221.394 148.34L223.603 147.08L224.085 148.5L221.802 149.5L223.343 151.8L222.09 152.59L220.846 149.98L219.594 152.55Z" fill="#263238"/>
<path d="M227.296 152.55L226.08 151.76L227.602 149.44L225.301 148.5L225.802 147.08L227.992 148.34L227.76 145.46H229.328L229.078 148.34L231.286 147.08L231.769 148.5L229.486 149.5L231.036 151.8L229.774 152.59L228.53 149.98L227.296 152.55Z" fill="#263238"/>
<path d="M234.998 152.55L233.783 151.76L235.305 149.44L233.022 148.5L233.532 147.08L235.713 148.34L235.481 145.46H237.049L236.799 148.34L239.007 147.08L239.49 148.5L237.207 149.5L238.757 151.8L237.495 152.59L236.26 149.98L234.998 152.55Z" fill="#263238"/>
<path d="M242.701 152.55L241.485 151.76L243.016 149.44L240.724 148.5L241.235 147.08L243.415 148.34L243.183 145.46H244.789L244.538 148.34L246.747 147.08L247.229 148.5L244.947 149.5L246.496 151.8L245.234 152.59L244 149.98L242.701 152.55Z" fill="#263238"/>
<path d="M250.403 152.55L249.187 151.76L250.719 149.44L248.436 148.5L248.937 147.08L251.127 148.34L250.886 145.46H252.454L252.203 148.34L254.412 147.08L254.895 148.5L252.612 149.5L254.162 151.8L252.899 152.59L251.665 149.98L250.403 152.55Z" fill="#263238"/>
<path d="M258.115 152.55L256.89 151.76L258.421 149.44L256.138 148.5L256.639 147.08L258.829 148.34L258.597 145.46H260.166L259.906 148.34L262.115 147.08L262.597 148.5L260.314 149.5L261.864 151.8L260.611 152.59L259.368 149.98L258.115 152.55Z" fill="#263238"/>
<path d="M181.091 127V118.33H183.086C183.49 118.31 183.891 118.411 184.246 118.62C184.533 118.812 184.755 119.1 184.877 119.44C185.017 119.853 185.083 120.291 185.072 120.73C185.081 121.14 185.005 121.546 184.849 121.92C184.707 122.243 184.477 122.511 184.19 122.69C183.856 122.889 183.477 122.985 183.095 122.97H182.167V126.97L181.091 127ZM182.214 122.1H182.724C183 122.124 183.277 122.09 183.541 122C183.63 121.965 183.711 121.91 183.78 121.839C183.848 121.769 183.903 121.684 183.94 121.59C184.028 121.324 184.069 121.042 184.06 120.76C184.071 120.424 184.04 120.087 183.968 119.76C183.948 119.658 183.906 119.563 183.844 119.483C183.783 119.403 183.704 119.34 183.615 119.3C183.351 119.196 183.07 119.152 182.789 119.17H182.26L182.214 122.1Z" fill="#263238"/>
<path d="M185.044 127L186.752 118.33H187.828L189.545 127H188.487L188.116 124.82H186.483L186.093 127H185.044ZM186.631 123.95H187.967L187.299 120.05L186.631 123.95Z" fill="#263238"/>
<path d="M192.255 127.13C191.851 127.144 191.451 127.033 191.104 126.81C190.799 126.587 190.555 126.28 190.399 125.92C190.233 125.501 190.138 125.054 190.12 124.6L191.113 124.31C191.135 124.61 191.181 124.908 191.253 125.2C191.308 125.462 191.426 125.703 191.596 125.9C191.682 125.992 191.785 126.064 191.899 126.111C192.012 126.157 192.133 126.177 192.255 126.17C192.377 126.181 192.5 126.164 192.615 126.119C192.731 126.074 192.836 126.003 192.923 125.91C193.084 125.7 193.164 125.431 193.146 125.16C193.16 124.822 193.072 124.489 192.895 124.21C192.711 123.948 192.502 123.707 192.273 123.49L190.965 122.2C190.718 121.979 190.518 121.702 190.38 121.39C190.244 121.042 190.181 120.667 190.195 120.29C190.181 120.019 190.218 119.749 190.304 119.494C190.39 119.24 190.524 119.007 190.696 118.81C191.075 118.447 191.572 118.26 192.078 118.29C192.362 118.283 192.644 118.327 192.914 118.42C193.144 118.504 193.354 118.645 193.526 118.83C193.697 119.036 193.827 119.277 193.907 119.54C194.017 119.861 194.083 120.198 194.101 120.54L193.173 120.82C193.157 120.557 193.12 120.296 193.062 120.04C193.009 119.819 192.899 119.618 192.747 119.46C192.56 119.311 192.334 119.231 192.102 119.231C191.869 119.231 191.643 119.311 191.457 119.46C191.374 119.554 191.311 119.666 191.271 119.788C191.231 119.911 191.215 120.041 191.225 120.17C191.215 120.394 191.256 120.617 191.345 120.82C191.446 121.022 191.582 121.202 191.744 121.35L193.109 122.63C193.419 122.921 193.691 123.258 193.916 123.63C194.153 124.055 194.272 124.544 194.259 125.04C194.269 125.427 194.183 125.811 194.009 126.15C193.852 126.452 193.616 126.699 193.331 126.86C193 127.049 192.629 127.142 192.255 127.13Z" fill="#263238"/>
<path d="M196.96 127.13C196.553 127.145 196.15 127.034 195.8 126.81C195.494 126.587 195.251 126.28 195.094 125.92C194.928 125.501 194.834 125.054 194.816 124.6L195.809 124.31C195.83 124.61 195.877 124.908 195.948 125.2C196.003 125.462 196.122 125.703 196.292 125.9C196.379 125.993 196.484 126.065 196.599 126.112C196.714 126.158 196.837 126.178 196.96 126.17C197.08 126.181 197.202 126.163 197.316 126.118C197.43 126.073 197.533 126.002 197.619 125.91C197.779 125.7 197.859 125.431 197.841 125.16C197.856 124.822 197.768 124.489 197.591 124.21C197.406 123.948 197.198 123.707 196.969 123.49L195.605 122.2C195.36 121.976 195.161 121.7 195.02 121.39C194.884 121.042 194.821 120.667 194.835 120.29C194.821 120.019 194.858 119.749 194.944 119.494C195.03 119.24 195.164 119.007 195.336 118.81C195.715 118.447 196.212 118.26 196.718 118.29C197.002 118.283 197.284 118.327 197.554 118.42C197.784 118.504 197.994 118.645 198.166 118.83C198.337 119.036 198.467 119.277 198.547 119.54C198.657 119.861 198.723 120.198 198.741 120.54L197.813 120.82C197.797 120.557 197.76 120.296 197.702 120.04C197.649 119.819 197.539 119.618 197.387 119.46C197.2 119.311 196.974 119.231 196.742 119.231C196.509 119.231 196.283 119.311 196.097 119.46C196.014 119.554 195.951 119.666 195.911 119.788C195.871 119.911 195.855 120.041 195.865 120.17C195.855 120.394 195.896 120.617 195.985 120.82C196.086 121.022 196.222 121.202 196.384 121.35L197.749 122.63C198.059 122.921 198.331 123.258 198.556 123.63C198.793 124.055 198.912 124.544 198.899 125.04C198.909 125.427 198.823 125.811 198.649 126.15C198.492 126.452 198.256 126.699 197.971 126.86C197.66 127.038 197.312 127.131 196.96 127.13Z" fill="#263238"/>
<path d="M200.802 127L199.484 118.33H200.412L201.275 124.56L202.361 118.37H203.149L204.245 124.59L205.089 118.33H206.017L204.718 127H203.901L202.788 120.58L201.655 127H200.802Z" fill="#263238"/>
<path d="M208.968 127.13C208.512 127.152 208.061 127.031 207.669 126.78C207.334 126.546 207.088 126.192 206.973 125.78C206.827 125.3 206.758 124.796 206.769 124.29V121C206.755 120.5 206.827 120.002 206.982 119.53C207.105 119.142 207.347 118.81 207.669 118.59C208.065 118.351 208.515 118.237 208.968 118.26C209.418 118.235 209.866 118.35 210.258 118.59C210.576 118.815 210.817 119.145 210.945 119.53C211.099 120.002 211.172 120.5 211.158 121V124.29C211.171 124.793 211.098 125.295 210.945 125.77C210.824 126.176 210.582 126.527 210.258 126.77C209.871 127.026 209.422 127.151 208.968 127.13ZM208.968 126.13C209.207 126.148 209.445 126.082 209.645 125.94C209.8 125.793 209.907 125.597 209.952 125.38C210.011 125.105 210.039 124.823 210.035 124.54V120.74C210.04 120.461 210.012 120.182 209.952 119.91C209.909 119.701 209.801 119.513 209.645 119.38C209.445 119.239 209.207 119.172 208.968 119.19C208.729 119.17 208.49 119.237 208.291 119.38C208.13 119.51 208.018 119.698 207.975 119.91C207.915 120.182 207.887 120.461 207.891 120.74V124.54C207.888 124.823 207.916 125.105 207.975 125.38C208.019 125.6 208.13 125.797 208.291 125.94C208.486 126.097 208.725 126.178 208.968 126.17V126.13Z" fill="#263238"/>
<path d="M212.309 127V118.33H213.933C214.385 118.317 214.835 118.395 215.26 118.56C215.593 118.698 215.87 118.961 216.039 119.3C216.221 119.715 216.307 120.171 216.29 120.63C216.296 120.94 216.262 121.25 216.188 121.55C216.134 121.803 216.026 122.04 215.872 122.24C215.722 122.437 215.522 122.583 215.297 122.66L216.392 127H215.316L214.258 123H213.385V127H212.309ZM213.432 122.07H213.859C214.121 122.081 214.382 122.037 214.629 121.94C214.825 121.861 214.984 121.703 215.074 121.5C215.178 121.224 215.226 120.927 215.213 120.63C215.241 120.246 215.15 119.862 214.954 119.54C214.816 119.408 214.654 119.309 214.477 119.251C214.301 119.192 214.116 119.175 213.933 119.2H213.432V122.07Z" fill="#263238"/>
<path d="M217.413 127V118.33H219.167C219.653 118.305 220.137 118.408 220.577 118.63C220.918 118.813 221.183 119.127 221.32 119.51C221.499 119.983 221.591 120.489 221.589 121V124.18C221.601 124.71 221.526 125.238 221.366 125.74C221.236 126.138 220.98 126.474 220.642 126.69C220.23 126.93 219.765 127.045 219.297 127.02L217.413 127ZM218.536 126.13H219.176C219.485 126.162 219.795 126.074 220.048 125.88C220.232 125.678 220.344 125.412 220.364 125.13C220.404 124.735 220.423 124.337 220.42 123.94V121.13C220.426 120.761 220.398 120.392 220.336 120.03C220.319 119.91 220.279 119.796 220.22 119.693C220.162 119.589 220.084 119.5 219.993 119.43C219.734 119.279 219.442 119.209 219.148 119.23H218.536V126.13Z" fill="#263238"/>
<path d="M126.218 95.4901V81.6201H129.559C130.315 81.6047 131.069 81.7126 131.796 81.9401C132.378 82.1228 132.884 82.5189 133.225 83.0601C133.59 83.7347 133.764 84.51 133.726 85.2901C133.732 85.7974 133.685 86.3039 133.587 86.8001C133.51 87.2318 133.348 87.6409 133.113 88.0001C132.872 88.3427 132.552 88.6115 132.185 88.7801L133.967 95.5401H131.276L129.8 89.2601H128.872V95.5401L126.218 95.4901ZM128.844 87.4901H129.605C129.961 87.5304 130.319 87.4683 130.645 87.3101C130.888 87.1582 131.073 86.9167 131.164 86.6301C131.269 86.2675 131.319 85.8895 131.313 85.5101C131.343 84.9994 131.229 84.4908 130.988 84.0501C130.835 83.8545 130.637 83.7049 130.415 83.6155C130.192 83.5262 129.952 83.5002 129.717 83.5401H128.789L128.844 87.4901Z" fill="#263238"/>
<path d="M135.443 95.4901V81.6201H141.011V83.5701H138.069V87.2601H140.38V89.2601H138.069V93.6101H141.094V95.5201L135.443 95.4901Z" fill="#263238"/>
<path d="M145.734 95.6801C145.046 95.709 144.362 95.5472 143.748 95.2101C143.216 94.8907 142.795 94.3919 142.551 93.7901C142.253 93.0231 142.096 92.2014 142.087 91.3701L144.342 90.9601C144.35 91.4418 144.406 91.9212 144.509 92.3901C144.565 92.7103 144.707 93.0058 144.917 93.2401C145.009 93.3359 145.119 93.4102 145.238 93.4584C145.358 93.5066 145.486 93.5276 145.613 93.5201C145.746 93.5371 145.88 93.5143 146.001 93.4543C146.122 93.3943 146.226 93.2994 146.3 93.1801C146.425 92.9389 146.489 92.6664 146.486 92.3901C146.503 91.8712 146.366 91.36 146.096 90.9301C145.796 90.492 145.451 90.0927 145.066 89.7401L143.739 88.4901C143.272 88.0705 142.876 87.5663 142.57 87.0001C142.254 86.3897 142.097 85.6987 142.115 85.0001C142.084 84.5155 142.151 84.0294 142.311 83.5754C142.471 83.1213 142.721 82.7101 143.043 82.3701C143.754 81.725 144.667 81.396 145.595 81.4501C146.141 81.4301 146.684 81.5465 147.182 81.7901C147.56 82.0054 147.879 82.3223 148.11 82.7101C148.337 83.0921 148.498 83.5157 148.583 83.9601C148.674 84.4007 148.73 84.8491 148.75 85.3001L146.514 85.6601C146.514 85.2401 146.458 84.8701 146.412 84.5501C146.376 84.2778 146.277 84.0197 146.124 83.8001C146.042 83.7033 145.942 83.6278 145.829 83.5793C145.716 83.5308 145.595 83.5105 145.474 83.5201C145.341 83.5124 145.209 83.5426 145.09 83.6075C144.971 83.6724 144.87 83.7699 144.797 83.8901C144.651 84.1308 144.573 84.4124 144.574 84.7001C144.553 85.1284 144.66 85.5526 144.88 85.9101C145.128 86.2781 145.414 86.6138 145.734 86.9101L147.033 88.1401C147.569 88.6408 148.038 89.2197 148.425 89.8601C148.833 90.5779 149.036 91.4089 149.01 92.2501C149.018 92.8663 148.874 93.4738 148.592 94.0101C148.323 94.5305 147.925 94.9599 147.442 95.2501C146.914 95.5433 146.327 95.691 145.734 95.6801Z" fill="#263238"/>
<path d="M150.216 95.4901V81.6201H155.784V83.5701H152.796V87.2601H155.098V89.2601H152.796V93.6101H155.812V95.5201L150.216 95.4901Z" fill="#263238"/>
<path d="M158.392 95.4901V83.7301H156.406V81.6201H162.986V83.7301H161.028V95.4901H158.392Z" fill="#263238"/>
<path d="M169.797 95.4901V90.0001L167.292 81.6201H169.751L171.133 86.5001L172.405 81.6201H174.79L172.331 90.0001V95.4901H169.797Z" fill="#263238"/>
<path d="M179.291 95.6799C178.509 95.7233 177.732 95.533 177.045 95.1299C176.497 94.7716 176.081 94.2206 175.866 93.5699C175.61 92.7869 175.487 91.9602 175.504 91.1299V85.9999C175.487 85.173 175.609 84.3495 175.866 83.5699C176.079 82.9156 176.495 82.3608 177.045 81.9999C177.752 81.6477 178.521 81.4653 179.3 81.4653C180.079 81.4653 180.848 81.6477 181.555 81.9999C182.103 82.3515 182.522 82.8951 182.743 83.5399C183 84.3158 183.123 85.1362 183.105 85.9599V91.1399C183.122 91.9702 182.999 92.7969 182.743 93.5799C182.526 94.2321 182.106 94.7833 181.555 95.1399C180.86 95.5397 180.077 95.7265 179.291 95.6799ZM179.291 93.6799C179.557 93.704 179.823 93.6183 180.033 93.4399C180.2 93.2575 180.311 93.0233 180.348 92.7699C180.406 92.4739 180.434 92.1723 180.432 91.8699V85.2699C180.434 84.9709 180.406 84.6725 180.348 84.3799C180.309 84.1302 180.199 83.8997 180.033 83.7199C179.826 83.5343 179.559 83.4444 179.291 83.4699C179.162 83.4556 179.032 83.4705 178.909 83.5135C178.786 83.5566 178.672 83.6269 178.576 83.7199C178.411 83.9016 178.298 84.1308 178.251 84.3799C178.201 84.6735 178.177 84.9714 178.177 85.2699V91.8299C178.172 92.1319 178.197 92.4336 178.251 92.7299C178.286 92.9823 178.393 93.2166 178.557 93.3999C178.764 93.5785 179.027 93.6645 179.291 93.6399V93.6799Z" fill="#263238"/>
<path d="M188.478 95.6801C187.688 95.7275 186.902 95.5407 186.204 95.1401C185.664 94.7831 185.259 94.23 185.063 93.5801C184.83 92.7813 184.721 91.947 184.738 91.1101V81.6201H187.327V91.5001C187.328 91.835 187.353 92.1693 187.401 92.5001C187.431 92.7974 187.541 93.0788 187.717 93.3101C187.814 93.4207 187.932 93.506 188.064 93.5598C188.196 93.6135 188.337 93.6341 188.478 93.6201C188.619 93.6307 188.761 93.6085 188.894 93.5551C189.027 93.5016 189.148 93.4181 189.248 93.3101C189.417 93.0755 189.523 92.7953 189.554 92.5001C189.599 92.169 189.621 91.8347 189.619 91.5001V81.6201H192.208V91.1101C192.226 91.947 192.116 92.7813 191.884 93.5801C191.691 94.2317 191.285 94.7858 190.742 95.1401C190.048 95.5408 189.264 95.7277 188.478 95.6801Z" fill="#263238"/>
<path d="M194.036 95.49V81.62H197.377C198.13 81.6052 198.881 81.7131 199.604 81.94C200.189 82.1196 200.695 82.5164 201.034 83.06C201.399 83.7346 201.573 84.5099 201.535 85.29C201.539 85.7967 201.495 86.3026 201.405 86.8C201.321 87.2159 201.157 87.6079 200.922 87.95C200.682 88.2939 200.362 88.5631 199.994 88.73L201.776 95.49H199.085L197.609 89.21H196.681V95.49H194.036ZM196.663 87.49H197.461C197.807 87.5082 198.151 87.4325 198.463 87.27C198.704 87.1169 198.885 86.8755 198.973 86.59C199.086 86.2292 199.139 85.8503 199.131 85.47C199.163 84.9578 199.046 84.4477 198.797 84.01C198.65 83.823 198.461 83.6786 198.249 83.5895C198.037 83.5005 197.807 83.4697 197.581 83.5H196.653L196.663 87.49Z" fill="#263238"/>
<path d="M207.223 95.4899V81.6199H211.316C211.962 81.5965 212.603 81.7587 213.172 82.0899C213.661 82.4071 214.044 82.8832 214.267 83.4499C214.515 84.1378 214.635 84.8719 214.62 85.6099C214.658 86.4171 214.498 87.221 214.156 87.9399C213.864 88.4793 213.413 88.8982 212.875 89.1299C212.283 89.3761 211.653 89.495 211.019 89.4799H209.831V95.4799L207.223 95.4899ZM209.85 87.4899H210.778C211.083 87.5071 211.387 87.4381 211.659 87.2899C211.766 87.2211 211.859 87.1298 211.932 87.0216C212.005 86.9134 212.058 86.7904 212.086 86.6599C212.168 86.3036 212.206 85.937 212.197 85.5699C212.205 85.2139 212.174 84.8581 212.105 84.5099C212.06 84.2408 211.92 84.0007 211.715 83.8399C211.436 83.6598 211.112 83.576 210.787 83.5999H209.859L209.85 87.4899Z" fill="#263238"/>
<path d="M214.647 95.4901L217.144 81.6201H220.048L222.517 95.4901H220.104L219.64 92.4901H217.608L217.116 95.4901H214.647ZM217.877 90.7201H219.427L218.647 85.1201L217.877 90.7201Z" fill="#263238"/>
<path d="M227.073 95.6801C226.385 95.709 225.701 95.5472 225.087 95.2101C224.555 94.8907 224.134 94.3919 223.89 93.7901C223.593 93.0231 223.435 92.2014 223.426 91.3701L225.681 90.9601C225.69 91.4418 225.746 91.9212 225.848 92.3901C225.905 92.7103 226.047 93.0058 226.257 93.2401C226.349 93.3359 226.458 93.4102 226.578 93.4584C226.697 93.5066 226.825 93.5276 226.953 93.5201C227.085 93.5371 227.219 93.5143 227.34 93.4543C227.462 93.3943 227.565 93.2994 227.639 93.1801C227.765 92.9389 227.829 92.6664 227.825 92.3901C227.842 91.8712 227.705 91.36 227.435 90.9301C227.136 90.4944 226.794 90.0953 226.414 89.7401L225.078 88.4901C224.611 88.0705 224.215 87.5663 223.909 87.0001C223.593 86.3897 223.436 85.6987 223.454 85.0001C223.423 84.5155 223.49 84.0294 223.65 83.5754C223.811 83.1213 224.06 82.7101 224.382 82.3701C225.093 81.725 226.006 81.396 226.934 81.4501C227.48 81.4301 228.023 81.5465 228.521 81.7901C228.899 82.0054 229.218 82.3223 229.449 82.7101C229.687 83.1027 229.854 83.5405 229.941 84.0001C230.032 84.4407 230.088 84.8891 230.108 85.3401L227.871 85.7001C227.856 85.3284 227.822 84.9579 227.769 84.5901C227.738 84.3166 227.639 84.0574 227.482 83.8401C227.4 83.7433 227.299 83.6678 227.187 83.6193C227.074 83.5708 226.953 83.5505 226.832 83.5601C226.699 83.5524 226.566 83.5826 226.447 83.6475C226.329 83.7124 226.228 83.8099 226.155 83.9301C226.008 84.1708 225.931 84.4524 225.932 84.7401C225.911 85.1684 226.018 85.5926 226.238 85.9501C226.486 86.3181 226.772 86.6538 227.092 86.9501L228.391 88.1801C228.93 88.6781 229.398 89.2574 229.783 89.9001C230.191 90.6179 230.394 91.4489 230.368 92.2901C230.365 92.8903 230.218 93.4795 229.941 94.0001C229.671 94.5205 229.273 94.9499 228.79 95.2401C228.261 95.5383 227.671 95.6896 227.073 95.6801Z" fill="#263238"/>
<path d="M234.896 95.68C234.208 95.7098 233.524 95.548 232.91 95.21C232.378 94.8906 231.957 94.3918 231.713 93.79C231.416 93.0223 231.256 92.2015 231.24 91.37L233.495 90.96C233.513 91.441 233.568 91.9194 233.662 92.39C233.725 92.7096 233.87 93.0039 234.08 93.24C234.17 93.3346 234.278 93.4082 234.396 93.4563C234.514 93.5045 234.64 93.5261 234.766 93.52C234.9 93.5389 235.036 93.5171 235.159 93.457C235.282 93.397 235.387 93.301 235.462 93.18C235.588 92.9389 235.652 92.6664 235.648 92.39C235.665 91.8711 235.528 91.3599 235.258 90.93C234.959 90.4919 234.613 90.0926 234.228 89.74L232.892 88.49C232.429 88.0654 232.034 87.5621 231.723 87C231.415 86.3866 231.261 85.6971 231.277 85C231.246 84.5154 231.313 84.0293 231.473 83.5753C231.634 83.1213 231.883 82.71 232.205 82.37C232.915 81.7231 233.829 81.3939 234.757 81.45C235.303 81.4321 235.846 81.5484 236.344 81.79C236.723 82.0042 237.042 82.3213 237.272 82.71C237.502 83.0915 237.666 83.5151 237.755 83.96C237.846 84.4006 237.902 84.849 237.922 85.3L235.676 85.66C235.66 85.2883 235.626 84.9178 235.574 84.55C235.547 84.2755 235.447 84.0151 235.286 83.8C235.207 83.7022 235.108 83.6258 234.997 83.5772C234.886 83.5285 234.765 83.5089 234.646 83.52C234.511 83.5126 234.378 83.5427 234.257 83.6076C234.137 83.6724 234.034 83.7697 233.959 83.89C233.813 84.1307 233.735 84.4123 233.736 84.7C233.718 85.1294 233.829 85.5537 234.052 85.91C234.298 86.2757 234.582 86.611 234.896 86.91L236.205 88.14C236.741 88.6407 237.209 89.2196 237.597 89.86C237.997 90.5807 238.197 91.4104 238.172 92.25C238.179 92.8648 238.039 93.4712 237.764 94.01C237.494 94.5304 237.096 94.9598 236.613 95.25C236.083 95.5448 235.493 95.6926 234.896 95.68Z" fill="#263238"/>
<path d="M240.743 95.4901L239.072 81.6201H241.299L242.227 90.1001L243.36 81.6401H245.123L246.301 90.0801L247.229 81.6201H249.419L247.768 95.4901H245.54L244.288 86.7101L243.091 95.4901H240.743Z" fill="#263238"/>
<path d="M254.319 95.6798C253.538 95.7232 252.761 95.5328 252.074 95.1298C251.526 94.7714 251.11 94.2205 250.895 93.5698C250.638 92.7868 250.516 91.96 250.533 91.1298V85.9998C250.516 85.1728 250.638 84.3493 250.895 83.5698C251.108 82.9154 251.524 82.3606 252.074 81.9998C252.766 81.6131 253.541 81.4302 254.319 81.4698C255.105 81.4273 255.888 81.6138 256.584 82.0098C257.132 82.3546 257.554 82.8909 257.781 83.5298C258.038 84.3057 258.161 85.126 258.143 85.9498V91.1298C258.16 91.96 258.038 92.7868 257.781 93.5698C257.564 94.222 257.144 94.7732 256.593 95.1298C255.897 95.5358 255.11 95.7262 254.319 95.6798ZM254.319 93.6798C254.586 93.7039 254.851 93.6181 255.062 93.4398C255.232 93.2583 255.346 93.0241 255.387 92.7698C255.436 92.4727 255.461 92.1716 255.461 91.8698V85.2698C255.461 84.9713 255.436 84.6734 255.387 84.3798C255.344 84.129 255.23 83.8986 255.062 83.7198C254.855 83.5342 254.588 83.4443 254.319 83.4698C254.191 83.4584 254.062 83.4747 253.939 83.5176C253.816 83.5605 253.703 83.6292 253.605 83.7198C253.439 83.8995 253.329 84.13 253.289 84.3798C253.232 84.6723 253.204 84.9707 253.206 85.2698V91.8298C253.206 92.1316 253.231 92.4327 253.28 92.7298C253.315 92.9821 253.422 93.2165 253.586 93.3998C253.794 93.5766 254.056 93.6623 254.319 93.6398V93.6798Z" fill="#263238"/>
<path d="M259.878 95.4901V81.6201H263.219C263.975 81.6047 264.729 81.7126 265.455 81.9401C266.038 82.1228 266.544 82.5189 266.884 83.0601C267.25 83.7347 267.424 84.51 267.386 85.2901C267.391 85.7974 267.345 86.3039 267.246 86.8001C267.163 87.2143 267.002 87.6058 266.773 87.9501C266.532 88.2927 266.212 88.5616 265.845 88.7301L267.627 95.4901H264.936L263.46 89.2101H262.532V95.4901H259.878ZM262.504 87.4901H263.265C263.611 87.5109 263.957 87.4351 264.268 87.2701C264.511 87.1182 264.696 86.8767 264.787 86.5901C264.891 86.2275 264.941 85.8495 264.936 85.4701C264.965 84.9594 264.852 84.4508 264.611 84.0101C264.463 83.8238 264.274 83.6798 264.062 83.5909C263.85 83.5019 263.621 83.4707 263.395 83.5001H262.467L262.504 87.4901Z" fill="#263238"/>
<path d="M269.102 95.4899V81.6199H272.248C273.12 81.5763 273.99 81.7331 274.8 82.0799C275.385 82.3551 275.847 82.8642 276.09 83.4999C276.37 84.2872 276.5 85.1274 276.471 85.9699V90.9699C276.5 91.8353 276.371 92.6984 276.09 93.5099C275.854 94.156 275.395 94.6789 274.81 94.9699C274.021 95.3262 273.168 95.4868 272.313 95.4399L269.102 95.4899ZM271.719 93.4899H272.276C272.637 93.5208 272.998 93.4374 273.316 93.2499C273.423 93.161 273.513 93.0497 273.58 92.9226C273.647 92.7955 273.69 92.6551 273.705 92.5099C273.766 92.11 273.794 91.7051 273.789 91.2999V85.6099C273.796 85.2236 273.762 84.8377 273.687 84.4599C273.629 84.1942 273.48 83.9619 273.269 83.8099C272.953 83.653 272.605 83.5842 272.258 83.6099H271.701L271.719 93.4899Z" fill="#263238"/>
<path d="M160.573 261.06C160.025 261.093 159.48 260.954 159.004 260.66C158.621 260.401 158.335 260.004 158.197 259.54C158.033 259.005 157.955 258.444 157.965 257.88V254.42C157.952 253.84 158.031 253.262 158.197 252.71C158.332 252.247 158.619 251.852 159.004 251.6C159.483 251.315 160.026 251.18 160.573 251.21C161.094 251.182 161.612 251.303 162.076 251.56C162.435 251.784 162.708 252.139 162.846 252.56C163.003 253.028 163.078 253.523 163.069 254.02V254.82H161.269V253.92C161.279 253.714 161.279 253.507 161.269 253.3C161.247 253.125 161.183 252.96 161.083 252.82C161.015 252.753 160.934 252.703 160.846 252.672C160.758 252.641 160.665 252.63 160.573 252.64C160.477 252.63 160.381 252.642 160.29 252.675C160.198 252.707 160.115 252.76 160.044 252.83C159.931 252.967 159.859 253.138 159.84 253.32C159.82 253.543 159.82 253.767 159.84 253.99V258.36C159.837 258.595 159.856 258.829 159.895 259.06C159.926 259.236 160.007 259.397 160.127 259.52C160.267 259.638 160.442 259.695 160.619 259.68C160.71 259.69 160.801 259.679 160.887 259.648C160.974 259.617 161.053 259.566 161.12 259.5C161.226 259.36 161.29 259.19 161.306 259.01C161.32 258.794 161.32 258.577 161.306 258.36V257.42H163.069V258.21C163.078 258.717 163.002 259.222 162.846 259.7C162.702 260.115 162.435 260.467 162.085 260.7C161.623 260.972 161.098 261.097 160.573 261.06Z" fill="#E8E8E8"/>
<path d="M164.201 260.93V251.33H166.057V255.28H167.626V251.33H169.482V260.93H167.626V256.68H166.057V260.93H164.201Z" fill="#E8E8E8"/>
<path d="M170.345 260.93L172.071 251.33H174.084L175.801 260.93H174.112L173.797 258.82H172.405L172.061 260.93H170.345ZM172.553 257.63H173.62L173.082 253.75L172.553 257.63Z" fill="#E8E8E8"/>
<path d="M176.636 260.93V251.33H177.899L179.884 256.33V251.33H181.379V260.93H180.172L178.186 255.62V260.93H176.636Z" fill="#E8E8E8"/>
<path d="M185.007 261.08C184.503 261.108 184.003 260.964 183.578 260.67C183.217 260.381 182.953 259.974 182.826 259.51C182.67 258.942 182.595 258.352 182.604 257.76V254.54C182.593 253.938 182.668 253.337 182.826 252.76C182.968 252.287 183.256 251.881 183.643 251.61C184.12 251.32 184.664 251.181 185.211 251.21C185.735 251.185 186.256 251.305 186.724 251.56C187.087 251.786 187.368 252.139 187.522 252.56C187.691 253.035 187.773 253.541 187.763 254.05V254.61H185.991V253.93C186.006 253.707 186.006 253.483 185.991 253.26C185.973 253.089 185.901 252.93 185.787 252.81C185.643 252.684 185.46 252.623 185.276 252.64C185.18 252.631 185.083 252.645 184.992 252.679C184.901 252.713 184.817 252.768 184.747 252.84C184.634 252.989 184.561 253.169 184.534 253.36C184.519 253.583 184.519 253.807 184.534 254.03V258.28C184.53 258.525 184.552 258.77 184.599 259.01C184.63 259.201 184.718 259.377 184.849 259.51C184.998 259.633 185.182 259.693 185.369 259.68C185.561 259.693 185.751 259.625 185.898 259.49C186.03 259.351 186.12 259.174 186.158 258.98C186.205 258.736 186.226 258.488 186.223 258.24V257.24H185.36V256H187.865V260.93H186.677L186.566 260.07C186.449 260.354 186.267 260.602 186.037 260.79C185.737 261.016 185.372 261.119 185.007 261.08Z" fill="#E8E8E8"/>
<path d="M189.025 260.93V251.33H192.904V252.68H190.844V255.23H192.44V256.59H190.844V259.59H192.932V260.91L189.025 260.93Z" fill="#E8E8E8"/>
<path d="M196.598 260.93V251.33H199.382C199.841 251.31 200.296 251.424 200.7 251.66C201.036 251.879 201.299 252.209 201.451 252.6C201.626 253.073 201.708 253.581 201.692 254.09C201.723 254.652 201.611 255.212 201.368 255.71C201.166 256.081 200.856 256.369 200.486 256.53C200.074 256.697 199.636 256.779 199.196 256.77H198.389V260.93H196.598ZM198.454 255.4H199.094C199.306 255.412 199.517 255.364 199.707 255.26C199.779 255.213 199.842 255.151 199.892 255.077C199.941 255.003 199.976 254.919 199.994 254.83C200.056 254.582 200.084 254.326 200.078 254.07C200.079 253.822 200.057 253.574 200.013 253.33C199.98 253.146 199.884 252.982 199.744 252.87C199.544 252.746 199.314 252.69 199.085 252.71H198.389L198.454 255.4Z" fill="#E8E8E8"/>
<path d="M201.73 260.93L203.465 251.33H205.479L207.196 260.93H205.507L205.191 258.82H203.78L203.437 260.93H201.73ZM203.948 257.63H205.015L204.476 253.75L203.948 257.63Z" fill="#E8E8E8"/>
<path d="M210.341 261.06C209.863 261.083 209.386 260.973 208.959 260.74C208.59 260.513 208.299 260.161 208.133 259.74C207.926 259.211 207.816 258.644 207.808 258.07L209.367 257.78C209.375 258.117 209.415 258.452 209.488 258.78C209.525 259.004 209.625 259.21 209.775 259.37C209.837 259.437 209.911 259.49 209.992 259.524C210.074 259.559 210.161 259.574 210.249 259.57C210.342 259.582 210.436 259.565 210.521 259.523C210.606 259.481 210.679 259.414 210.731 259.33C210.816 259.165 210.857 258.978 210.852 258.79C210.863 258.434 210.768 258.084 210.583 257.79C210.376 257.49 210.14 257.215 209.877 256.97L208.949 256.1C208.633 255.815 208.36 255.477 208.142 255.1C207.923 254.676 207.814 254.195 207.827 253.71C207.806 253.374 207.853 253.037 207.965 252.723C208.077 252.409 208.252 252.124 208.476 251.89C208.964 251.438 209.597 251.208 210.239 251.25C210.62 251.235 210.998 251.317 211.344 251.49C211.609 251.636 211.836 251.853 212.003 252.12C212.159 252.387 212.272 252.681 212.337 252.99C212.401 253.295 212.438 253.607 212.448 253.92L210.898 254.17C210.886 253.912 210.861 253.655 210.824 253.4C210.806 253.21 210.739 253.03 210.629 252.88C210.573 252.814 210.504 252.763 210.427 252.73C210.35 252.697 210.266 252.683 210.184 252.69C210.091 252.682 209.999 252.702 209.915 252.745C209.832 252.789 209.761 252.857 209.71 252.94C209.607 253.105 209.552 253.3 209.553 253.5C209.541 253.798 209.619 254.093 209.775 254.34C209.944 254.591 210.14 254.82 210.36 255.02L211.288 255.88C211.651 256.224 211.964 256.625 212.216 257.07C212.494 257.567 212.633 258.14 212.615 258.72C212.622 259.147 212.523 259.568 212.327 259.94C212.143 260.303 211.866 260.602 211.529 260.8C211.16 260.992 210.751 261.082 210.341 261.06Z" fill="#E8E8E8"/>
<path d="M215.752 261.06C215.276 261.082 214.803 260.972 214.378 260.74C214.004 260.516 213.71 260.164 213.543 259.74C213.336 259.211 213.226 258.644 213.218 258.07L214.787 257.78C214.787 258.117 214.825 258.453 214.898 258.78C214.939 259.003 215.039 259.207 215.186 259.37C215.249 259.438 215.324 259.491 215.407 259.525C215.49 259.559 215.579 259.575 215.668 259.57C215.76 259.582 215.853 259.566 215.937 259.524C216.021 259.481 216.092 259.414 216.141 259.33C216.229 259.166 216.274 258.979 216.271 258.79C216.278 258.435 216.184 258.086 216.002 257.79C215.792 257.49 215.553 257.215 215.288 256.97L214.36 256.1C214.038 255.818 213.761 255.48 213.543 255.1C213.327 254.675 213.221 254.195 213.237 253.71C213.216 253.375 213.263 253.039 213.373 252.725C213.484 252.411 213.655 252.126 213.877 251.89C214.366 251.439 214.998 251.21 215.64 251.25C216.021 251.234 216.4 251.316 216.745 251.49C217.015 251.633 217.245 251.851 217.413 252.12C217.567 252.388 217.677 252.682 217.738 252.99C217.801 253.296 217.841 253.607 217.858 253.92L216.299 254.17C216.29 253.913 216.268 253.655 216.234 253.4C216.214 253.209 216.143 253.029 216.03 252.88C215.968 252.813 215.893 252.761 215.811 252.728C215.729 252.694 215.641 252.68 215.554 252.686C215.466 252.691 215.38 252.717 215.303 252.761C215.225 252.805 215.156 252.866 215.102 252.94C215.002 253.107 214.95 253.302 214.954 253.5C214.939 253.798 215.014 254.092 215.167 254.34C215.336 254.591 215.532 254.82 215.752 255.02L216.68 255.88C217.041 256.226 217.354 256.627 217.608 257.07C217.889 257.566 218.031 258.139 218.016 258.72C218.019 259.147 217.92 259.567 217.728 259.94C217.542 260.301 217.265 260.599 216.93 260.8C216.563 260.989 216.158 261.079 215.752 261.06Z" fill="#E8E8E8"/>
<path d="M219.798 260.93L218.647 251.33H220.188L220.8 257.2L221.58 251.34H222.805L223.621 257.19L224.234 251.33H225.756L224.605 260.93H223.074L222.201 254.85L221.375 260.93H219.798Z" fill="#E8E8E8"/>
<path d="M229.198 261.06C228.659 261.092 228.122 260.96 227.649 260.68C227.268 260.431 226.977 260.05 226.823 259.6C226.653 259.056 226.571 258.484 226.581 257.91V254.33C226.57 253.759 226.651 253.19 226.823 252.65C226.974 252.2 227.266 251.822 227.649 251.58C228.125 251.308 228.66 251.18 229.198 251.21C229.742 251.185 230.282 251.312 230.767 251.58C231.145 251.827 231.436 252.204 231.593 252.65C231.769 253.189 231.85 253.759 231.834 254.33V257.91C231.849 258.484 231.768 259.057 231.593 259.6C231.439 260.05 231.148 260.431 230.767 260.68C230.287 260.96 229.744 261.092 229.198 261.06ZM229.198 259.65C229.386 259.669 229.572 259.608 229.718 259.48C229.835 259.348 229.913 259.18 229.941 259C229.979 258.796 229.998 258.588 229.996 258.38V253.84C229.998 253.632 229.979 253.424 229.941 253.22C229.908 253.049 229.835 252.891 229.727 252.76C229.58 252.635 229.395 252.575 229.208 252.59C229.029 252.574 228.853 252.635 228.716 252.76C228.601 252.886 228.523 253.046 228.493 253.22C228.455 253.424 228.436 253.632 228.437 253.84V258.38C228.423 258.586 228.423 258.794 228.437 259C228.466 259.172 228.54 259.332 228.651 259.46C228.724 259.532 228.811 259.587 228.905 259.62C229 259.652 229.1 259.663 229.198 259.65Z" fill="#E8E8E8"/>
<path d="M233.05 260.93V251.33H235.36C235.881 251.316 236.401 251.39 236.901 251.55C237.307 251.674 237.66 251.95 237.894 252.33C238.151 252.794 238.273 253.33 238.246 253.87C238.248 254.223 238.214 254.575 238.144 254.92C238.094 255.206 237.983 255.477 237.819 255.71C237.647 255.952 237.416 256.139 237.151 256.25L238.386 260.93H236.53L235.509 256.58H234.878V260.93H233.05ZM234.906 255.42H235.425C235.665 255.433 235.904 255.381 236.121 255.27C236.289 255.163 236.416 254.997 236.483 254.8C236.556 254.547 236.59 254.284 236.585 254.02C236.604 253.67 236.527 253.322 236.363 253.02C236.261 252.889 236.13 252.788 235.983 252.726C235.835 252.665 235.675 252.646 235.518 252.67H234.906V255.42Z" fill="#E8E8E8"/>
<path d="M239.434 260.93V251.33H241.606C242.21 251.304 242.813 251.41 243.378 251.64C243.798 251.829 244.131 252.188 244.306 252.64C244.5 253.185 244.591 253.766 244.575 254.35V257.85C244.593 258.447 244.501 259.041 244.306 259.6C244.137 260.039 243.823 260.395 243.425 260.6C242.875 260.843 242.283 260.952 241.689 260.92L239.434 260.93ZM241.29 259.57H241.68C241.929 259.591 242.177 259.532 242.395 259.4C242.543 259.275 242.64 259.092 242.664 258.89C242.704 258.612 242.723 258.331 242.719 258.05V254.05C242.726 253.781 242.705 253.513 242.654 253.25C242.636 253.16 242.601 253.074 242.552 252.998C242.503 252.923 242.44 252.859 242.367 252.81C242.15 252.698 241.91 252.65 241.671 252.67H241.29V259.57Z" fill="#E8E8E8"/>
<path d="M165.092 185.59C164.624 185.619 164.159 185.485 163.765 185.21C163.457 184.958 163.23 184.608 163.116 184.21C162.985 183.74 162.922 183.251 162.93 182.76V179.7C162.918 179.183 162.981 178.667 163.116 178.17C163.219 177.766 163.449 177.413 163.765 177.17C164.166 176.915 164.627 176.793 165.092 176.82C165.509 176.798 165.924 176.902 166.289 177.12C166.583 177.318 166.805 177.618 166.92 177.97C167.059 178.401 167.125 178.854 167.115 179.31V179.99H166.057V179.38C166.073 179.097 166.073 178.813 166.057 178.53C166.036 178.317 165.951 178.117 165.816 177.96C165.611 177.823 165.375 177.75 165.134 177.75C164.893 177.75 164.656 177.823 164.452 177.96C164.294 178.125 164.195 178.344 164.173 178.58C164.126 178.887 164.104 179.199 164.108 179.51V182.95C164.101 183.286 164.132 183.622 164.201 183.95C164.246 184.169 164.366 184.361 164.535 184.49C164.72 184.609 164.933 184.664 165.148 184.65C165.386 184.671 165.621 184.592 165.807 184.43C165.947 184.265 166.032 184.054 166.048 183.83C166.087 183.532 166.106 183.231 166.104 182.93V182.29H167.162V182.93C167.171 183.401 167.111 183.87 166.985 184.32C166.882 184.7 166.667 185.033 166.373 185.27C165.988 185.519 165.54 185.631 165.092 185.59Z" fill="#263238"/>
<path d="M170.243 185.59C169.788 185.615 169.336 185.497 168.943 185.25C168.611 185.013 168.365 184.66 168.247 184.25C168.101 183.769 168.032 183.265 168.043 182.76V179.47C168.029 178.97 168.102 178.471 168.257 178C168.382 177.61 168.628 177.279 168.953 177.06C169.346 176.824 169.793 176.713 170.243 176.74C170.693 176.714 171.141 176.829 171.532 177.07C171.855 177.291 172.1 177.622 172.228 178.01C172.379 178.479 172.451 178.973 172.442 179.47V182.77C172.449 183.273 172.377 183.773 172.228 184.25C172.102 184.655 171.858 185.005 171.532 185.25C171.144 185.5 170.694 185.618 170.243 185.59ZM170.243 184.59C170.483 184.612 170.723 184.541 170.92 184.39C171.075 184.248 171.183 184.054 171.226 183.84C171.286 183.565 171.314 183.282 171.31 183V179.2C171.314 178.921 171.286 178.642 171.226 178.37C171.181 178.159 171.074 177.969 170.92 177.83C170.717 177.695 170.48 177.632 170.243 177.65C170.005 177.634 169.768 177.696 169.565 177.83C169.408 177.968 169.297 178.158 169.25 178.37C169.198 178.643 169.173 178.921 169.175 179.2V183C169.173 183.282 169.198 183.563 169.25 183.84C169.295 184.056 169.406 184.249 169.565 184.39C169.756 184.558 169.996 184.647 170.243 184.64V184.59Z" fill="#263238"/>
<path d="M173.537 185.5V176.83H174.307L176.59 182.59V176.83H177.518V185.5H176.804L174.493 179.58V185.5H173.537Z" fill="#263238"/>
<path d="M178.78 185.5V176.83H181.889V177.7H179.903V180.59H181.444V181.44H179.903V185.5H178.78Z" fill="#263238"/>
<path d="M182.724 185.5V176.83H183.828V185.5H182.724Z" fill="#263238"/>
<path d="M185.128 185.5V176.83H186.742C187.197 176.818 187.65 176.896 188.079 177.06C188.411 177.201 188.686 177.463 188.858 177.8C189.041 178.215 189.127 178.671 189.109 179.13C189.11 179.44 189.076 179.749 189.007 180.05C188.951 180.303 188.843 180.538 188.691 180.74C188.541 180.935 188.341 181.078 188.116 181.15L189.257 185.5H188.181L187.132 181.43H186.26V185.5H185.128ZM186.251 180.56H186.677C186.939 180.569 187.2 180.528 187.448 180.44C187.639 180.358 187.795 180.201 187.884 180C187.988 179.724 188.036 179.427 188.023 179.13C188.055 178.742 187.964 178.354 187.763 178.03C187.624 177.9 187.462 177.804 187.286 177.747C187.11 177.69 186.925 177.674 186.742 177.7H186.251V180.56Z" fill="#263238"/>
<path d="M190.26 185.5L190.408 176.83H191.512L192.932 183.83L194.361 176.83H195.447L195.605 185.5H194.677L194.593 179.21L193.229 185.5H192.589L191.243 179.21L191.15 185.5H190.26Z" fill="#263238"/>
<path d="M199.103 185.5V176.83H201.099C201.501 176.813 201.901 176.909 202.259 177.11C202.544 177.305 202.765 177.592 202.89 177.93C203.029 178.347 203.095 178.787 203.085 179.23C203.093 179.64 203.016 180.046 202.862 180.42C202.72 180.743 202.49 181.011 202.203 181.19C201.866 181.382 201.489 181.475 201.108 181.46H200.18V185.46L199.103 185.5ZM200.226 180.6H200.746C201.004 180.611 201.262 180.571 201.507 180.48C201.684 180.405 201.828 180.258 201.906 180.07C201.994 179.804 202.035 179.522 202.027 179.24C202.04 178.904 202.012 178.568 201.943 178.24C201.923 178.138 201.881 178.043 201.82 177.963C201.758 177.883 201.679 177.82 201.59 177.78C201.323 177.678 201.039 177.633 200.755 177.65H200.245L200.226 180.6Z" fill="#263238"/>
<path d="M203.029 185.5L204.736 176.83H205.813L207.53 185.5H206.462L206.1 183.31H204.458L204.068 185.5H203.029ZM204.616 182.45H205.961L205.284 178.54L204.616 182.45Z" fill="#263238"/>
<path d="M210.276 185.59C209.869 185.61 209.465 185.499 209.116 185.27C208.808 185.054 208.565 184.745 208.42 184.38C208.249 183.967 208.155 183.522 208.142 183.07L209.135 182.78C209.154 183.08 209.198 183.378 209.265 183.67C209.326 183.93 209.444 184.17 209.608 184.37C209.793 184.541 210.029 184.634 210.272 184.634C210.515 184.634 210.75 184.541 210.935 184.37C211.095 184.156 211.175 183.885 211.158 183.61C211.173 183.276 211.085 182.945 210.908 182.67C210.723 182.408 210.515 182.167 210.286 181.95L208.931 180.66C208.686 180.433 208.487 180.154 208.346 179.84C208.215 179.495 208.152 179.124 208.161 178.75C208.147 178.48 208.184 178.209 208.27 177.955C208.356 177.7 208.49 177.468 208.662 177.27C209.041 176.907 209.538 176.72 210.044 176.75C210.328 176.743 210.61 176.787 210.88 176.88C211.11 176.965 211.32 177.105 211.492 177.29C211.66 177.495 211.789 177.732 211.873 177.99C211.983 178.311 212.049 178.648 212.068 178.99L211.14 179.27C211.116 179.004 211.076 178.74 211.019 178.48C210.967 178.261 210.858 178.063 210.703 177.91C210.517 177.762 210.291 177.681 210.058 177.681C209.826 177.681 209.6 177.762 209.413 177.91C209.331 178.004 209.267 178.116 209.227 178.239C209.187 178.361 209.171 178.491 209.181 178.62C209.172 178.844 209.214 179.067 209.302 179.27C209.409 179.471 209.547 179.65 209.71 179.8L211.065 181.08C211.376 181.372 211.648 181.708 211.873 182.08C212.11 182.505 212.229 182.995 212.216 183.49C212.226 183.878 212.139 184.261 211.965 184.6C211.809 184.903 211.573 185.15 211.288 185.31C210.977 185.492 210.63 185.588 210.276 185.59Z" fill="#263238"/>
<path d="M214.972 185.59C214.565 185.61 214.161 185.499 213.812 185.27C213.503 185.054 213.261 184.745 213.116 184.38C212.949 183.966 212.855 183.522 212.838 183.07L213.831 182.78C213.85 183.08 213.893 183.378 213.961 183.67C214.022 183.93 214.139 184.17 214.304 184.37C214.489 184.541 214.724 184.634 214.968 184.634C215.211 184.634 215.446 184.541 215.631 184.37C215.791 184.156 215.87 183.885 215.854 183.61C215.869 183.276 215.781 182.945 215.603 182.67C215.419 182.408 215.211 182.167 214.981 181.95L213.627 180.66C213.382 180.433 213.183 180.154 213.042 179.84C212.911 179.495 212.847 179.124 212.856 178.75C212.843 178.48 212.88 178.209 212.966 177.955C213.052 177.7 213.185 177.468 213.357 177.27C213.737 176.907 214.234 176.72 214.74 176.75C215.023 176.743 215.306 176.787 215.575 176.88C215.807 176.962 216.017 177.103 216.188 177.29C216.356 177.497 216.488 177.734 216.578 177.99C216.68 178.313 216.743 178.65 216.763 178.99L215.835 179.27C215.816 179.004 215.776 178.739 215.715 178.48C215.663 178.261 215.553 178.063 215.399 177.91C215.212 177.762 214.986 177.681 214.754 177.681C214.522 177.681 214.296 177.762 214.109 177.91C214.026 178.004 213.963 178.116 213.923 178.239C213.883 178.361 213.867 178.491 213.877 178.62C213.868 178.844 213.909 179.067 213.998 179.27C214.104 179.471 214.243 179.65 214.406 179.8L215.761 181.08C216.072 181.372 216.344 181.708 216.568 182.08C216.805 182.505 216.924 182.995 216.912 183.49C216.922 183.878 216.835 184.261 216.661 184.6C216.504 184.903 216.269 185.15 215.984 185.31C215.673 185.492 215.326 185.588 214.972 185.59Z" fill="#263238"/>
<path d="M218.805 185.5L217.496 176.83H218.424L219.287 183.06L220.373 176.86H221.162L222.257 183.09L223.101 176.83H224.029L222.74 185.5H221.932L220.809 179.08L219.677 185.5H218.805Z" fill="#263238"/>
<path d="M226.981 185.59C226.526 185.615 226.074 185.497 225.681 185.25C225.349 185.013 225.103 184.66 224.985 184.25C224.839 183.769 224.77 183.265 224.781 182.76V179.47C224.767 178.97 224.84 178.471 224.995 178C225.12 177.61 225.366 177.279 225.691 177.06C226.084 176.824 226.531 176.713 226.981 176.74C227.431 176.714 227.879 176.829 228.27 177.07C228.59 177.294 228.834 177.624 228.966 178.01C229.117 178.479 229.189 178.973 229.18 179.47V182.77C229.187 183.273 229.115 183.773 228.966 184.25C228.836 184.653 228.593 185.002 228.27 185.25C227.882 185.5 227.432 185.618 226.981 185.59ZM226.981 184.59C227.221 184.611 227.461 184.54 227.658 184.39C227.813 184.248 227.921 184.054 227.964 183.84C228.024 183.565 228.052 183.282 228.048 183V179.2C228.052 178.921 228.024 178.642 227.964 178.37C227.919 178.159 227.812 177.969 227.658 177.83C227.449 177.712 227.217 177.65 226.981 177.65C226.745 177.65 226.512 177.712 226.303 177.83C226.146 177.968 226.035 178.158 225.988 178.37C225.931 178.642 225.906 178.921 225.913 179.2V183C225.907 183.282 225.932 183.564 225.988 183.84C226.033 184.056 226.144 184.249 226.303 184.39C226.494 184.558 226.734 184.647 226.981 184.64V184.59Z" fill="#263238"/>
<path d="M230.275 185.5V176.83H231.899C232.351 176.817 232.801 176.895 233.226 177.06C233.561 177.195 233.839 177.459 234.005 177.8C234.188 178.215 234.274 178.671 234.256 179.13C234.26 179.44 234.229 179.749 234.163 180.05C234.105 180.304 233.994 180.539 233.838 180.74C233.69 180.937 233.489 181.08 233.263 181.15L234.404 185.5H233.328L232.27 181.43H231.398V185.5H230.275ZM231.398 180.56H231.797C232.061 180.569 232.325 180.529 232.576 180.44C232.766 180.355 232.921 180.199 233.012 180C233.117 179.724 233.164 179.428 233.152 179.13C233.18 178.743 233.088 178.356 232.892 178.03C232.753 177.901 232.59 177.805 232.414 177.748C232.238 177.691 232.053 177.675 231.871 177.7H231.37L231.398 180.56Z" fill="#263238"/>
<path d="M235.435 185.5V176.83H237.179C237.665 176.805 238.149 176.908 238.59 177.13C238.931 177.315 239.198 177.628 239.341 178.01C239.502 178.477 239.578 178.972 239.564 179.47V182.66C239.577 183.187 239.501 183.712 239.341 184.21C239.209 184.623 238.951 184.976 238.608 185.21C238.196 185.45 237.731 185.565 237.263 185.54L235.435 185.5ZM236.548 184.63H237.188C237.499 184.661 237.809 184.569 238.061 184.37C238.248 184.17 238.361 183.903 238.376 183.62C238.417 183.228 238.435 182.834 238.432 182.44V179.62C238.439 179.254 238.411 178.889 238.348 178.53C238.331 178.409 238.292 178.293 238.233 178.188C238.174 178.083 238.097 177.992 238.005 177.92C237.746 177.773 237.453 177.707 237.161 177.73H236.548V184.63Z" fill="#263238"/>
</svg>
